<svg xmlns="http://www.w3.org/2000/svg" viewBox="0 0 1900 1000">
  <!-- 13 stripes -->
  <rect width="1900" height="1000" fill="#B22234"/>
  <rect y="76.9"  width="1900" height="76.9" fill="#fff"/>
  <rect y="230.8" width="1900" height="76.9" fill="#fff"/>
  <rect y="384.6" width="1900" height="76.9" fill="#fff"/>
  <rect y="538.5" width="1900" height="76.9" fill="#fff"/>
  <rect y="692.3" width="1900" height="76.9" fill="#fff"/>
  <rect y="846.2" width="1900" height="76.9" fill="#fff"/>
  <!-- Blue canton -->
  <rect width="760" height="538.5" fill="#3C3B6E"/>
  <!-- 50 stars — R=26 — inline polygon, no <use> -->
  <!-- Row 1 y=54 -->
  <polygon transform="translate(55,54)"  points="0,-26 5.88,-8.09 24.73,-8.03 9.51,3.09 15.29,21.03 0,10 -15.29,21.03 -9.51,3.09 -24.73,-8.03 -5.88,-8.09" fill="#fff"/>
  <polygon transform="translate(165,54)" points="0,-26 5.88,-8.09 24.73,-8.03 9.51,3.09 15.29,21.03 0,10 -15.29,21.03 -9.51,3.09 -24.73,-8.03 -5.88,-8.09" fill="#fff"/>
  <polygon transform="translate(275,54)" points="0,-26 5.88,-8.09 24.73,-8.03 9.51,3.09 15.29,21.03 0,10 -15.29,21.03 -9.51,3.09 -24.73,-8.03 -5.88,-8.09" fill="#fff"/>
  <polygon transform="translate(385,54)" points="0,-26 5.88,-8.09 24.73,-8.03 9.51,3.09 15.29,21.03 0,10 -15.29,21.03 -9.51,3.09 -24.73,-8.03 -5.88,-8.09" fill="#fff"/>
  <polygon transform="translate(495,54)" points="0,-26 5.88,-8.09 24.73,-8.03 9.51,3.09 15.29,21.03 0,10 -15.29,21.03 -9.51,3.09 -24.73,-8.03 -5.88,-8.09" fill="#fff"/>
  <polygon transform="translate(605,54)" points="0,-26 5.88,-8.09 24.73,-8.03 9.51,3.09 15.29,21.03 0,10 -15.29,21.03 -9.51,3.09 -24.73,-8.03 -5.88,-8.09" fill="#fff"/>
  <!-- Row 2 y=108 -->
  <polygon transform="translate(110,108)" points="0,-26 5.88,-8.09 24.73,-8.03 9.51,3.09 15.29,21.03 0,10 -15.29,21.03 -9.51,3.09 -24.73,-8.03 -5.88,-8.09" fill="#fff"/>
  <polygon transform="translate(220,108)" points="0,-26 5.88,-8.09 24.73,-8.03 9.51,3.09 15.29,21.03 0,10 -15.29,21.03 -9.51,3.09 -24.73,-8.03 -5.88,-8.09" fill="#fff"/>
  <polygon transform="translate(330,108)" points="0,-26 5.88,-8.09 24.73,-8.03 9.51,3.09 15.29,21.03 0,10 -15.29,21.03 -9.51,3.09 -24.73,-8.03 -5.88,-8.09" fill="#fff"/>
  <polygon transform="translate(440,108)" points="0,-26 5.88,-8.09 24.73,-8.03 9.51,3.09 15.29,21.03 0,10 -15.29,21.03 -9.51,3.09 -24.73,-8.03 -5.88,-8.09" fill="#fff"/>
  <polygon transform="translate(550,108)" points="0,-26 5.88,-8.09 24.73,-8.03 9.51,3.09 15.29,21.03 0,10 -15.29,21.03 -9.51,3.09 -24.73,-8.03 -5.88,-8.09" fill="#fff"/>
  <!-- Row 3 y=162 -->
  <polygon transform="translate(55,162)"  points="0,-26 5.88,-8.09 24.73,-8.03 9.51,3.09 15.29,21.03 0,10 -15.29,21.03 -9.51,3.09 -24.73,-8.03 -5.88,-8.09" fill="#fff"/>
  <polygon transform="translate(165,162)" points="0,-26 5.88,-8.09 24.73,-8.03 9.51,3.09 15.29,21.03 0,10 -15.29,21.03 -9.51,3.09 -24.73,-8.03 -5.88,-8.09" fill="#fff"/>
  <polygon transform="translate(275,162)" points="0,-26 5.88,-8.09 24.73,-8.03 9.51,3.09 15.29,21.03 0,10 -15.29,21.03 -9.51,3.09 -24.73,-8.03 -5.88,-8.09" fill="#fff"/>
  <polygon transform="translate(385,162)" points="0,-26 5.88,-8.09 24.73,-8.03 9.51,3.09 15.29,21.03 0,10 -15.29,21.03 -9.51,3.09 -24.73,-8.03 -5.88,-8.09" fill="#fff"/>
  <polygon transform="translate(495,162)" points="0,-26 5.88,-8.09 24.73,-8.03 9.51,3.09 15.29,21.03 0,10 -15.29,21.03 -9.51,3.09 -24.73,-8.03 -5.88,-8.09" fill="#fff"/>
  <polygon transform="translate(605,162)" points="0,-26 5.88,-8.09 24.73,-8.03 9.51,3.09 15.29,21.03 0,10 -15.29,21.03 -9.51,3.09 -24.73,-8.03 -5.88,-8.09" fill="#fff"/>
  <!-- Row 4 y=216 -->
  <polygon transform="translate(110,216)" points="0,-26 5.88,-8.09 24.73,-8.03 9.51,3.09 15.29,21.03 0,10 -15.29,21.03 -9.51,3.09 -24.73,-8.03 -5.88,-8.09" fill="#fff"/>
  <polygon transform="translate(220,216)" points="0,-26 5.88,-8.09 24.73,-8.03 9.51,3.09 15.29,21.03 0,10 -15.29,21.03 -9.51,3.09 -24.73,-8.03 -5.88,-8.09" fill="#fff"/>
  <polygon transform="translate(330,216)" points="0,-26 5.88,-8.09 24.73,-8.03 9.51,3.09 15.29,21.03 0,10 -15.29,21.03 -9.51,3.09 -24.73,-8.03 -5.88,-8.09" fill="#fff"/>
  <polygon transform="translate(440,216)" points="0,-26 5.88,-8.09 24.73,-8.03 9.51,3.09 15.29,21.03 0,10 -15.29,21.03 -9.51,3.09 -24.73,-8.03 -5.88,-8.09" fill="#fff"/>
  <polygon transform="translate(550,216)" points="0,-26 5.88,-8.09 24.73,-8.03 9.51,3.09 15.29,21.03 0,10 -15.29,21.03 -9.51,3.09 -24.73,-8.03 -5.88,-8.09" fill="#fff"/>
  <!-- Row 5 y=270 -->
  <polygon transform="translate(55,270)"  points="0,-26 5.88,-8.09 24.73,-8.03 9.51,3.09 15.29,21.03 0,10 -15.29,21.03 -9.51,3.09 -24.73,-8.03 -5.88,-8.09" fill="#fff"/>
  <polygon transform="translate(165,270)" points="0,-26 5.88,-8.09 24.73,-8.03 9.51,3.09 15.29,21.03 0,10 -15.29,21.03 -9.51,3.09 -24.73,-8.03 -5.88,-8.09" fill="#fff"/>
  <polygon transform="translate(275,270)" points="0,-26 5.88,-8.09 24.73,-8.03 9.51,3.09 15.29,21.03 0,10 -15.29,21.03 -9.51,3.09 -24.73,-8.03 -5.88,-8.09" fill="#fff"/>
  <polygon transform="translate(385,270)" points="0,-26 5.88,-8.09 24.73,-8.03 9.51,3.09 15.29,21.03 0,10 -15.29,21.03 -9.51,3.09 -24.73,-8.03 -5.88,-8.09" fill="#fff"/>
  <polygon transform="translate(495,270)" points="0,-26 5.88,-8.09 24.73,-8.03 9.51,3.09 15.29,21.03 0,10 -15.29,21.03 -9.51,3.09 -24.73,-8.03 -5.88,-8.09" fill="#fff"/>
  <polygon transform="translate(605,270)" points="0,-26 5.88,-8.09 24.73,-8.03 9.51,3.09 15.29,21.03 0,10 -15.29,21.03 -9.51,3.09 -24.73,-8.03 -5.88,-8.09" fill="#fff"/>
  <!-- Row 6 y=324 -->
  <polygon transform="translate(110,324)" points="0,-26 5.88,-8.09 24.73,-8.03 9.51,3.09 15.29,21.03 0,10 -15.29,21.03 -9.51,3.09 -24.73,-8.03 -5.88,-8.09" fill="#fff"/>
  <polygon transform="translate(220,324)" points="0,-26 5.88,-8.09 24.73,-8.03 9.51,3.09 15.29,21.03 0,10 -15.29,21.03 -9.51,3.09 -24.73,-8.03 -5.88,-8.09" fill="#fff"/>
  <polygon transform="translate(330,324)" points="0,-26 5.88,-8.09 24.73,-8.03 9.51,3.09 15.29,21.03 0,10 -15.29,21.03 -9.51,3.09 -24.73,-8.03 -5.88,-8.09" fill="#fff"/>
  <polygon transform="translate(440,324)" points="0,-26 5.88,-8.09 24.73,-8.03 9.51,3.09 15.29,21.03 0,10 -15.29,21.03 -9.51,3.09 -24.73,-8.03 -5.88,-8.09" fill="#fff"/>
  <polygon transform="translate(550,324)" points="0,-26 5.88,-8.09 24.73,-8.03 9.51,3.09 15.29,21.03 0,10 -15.29,21.03 -9.51,3.09 -24.73,-8.03 -5.88,-8.09" fill="#fff"/>
  <!-- Row 7 y=378 -->
  <polygon transform="translate(55,378)"  points="0,-26 5.88,-8.09 24.73,-8.03 9.51,3.09 15.29,21.03 0,10 -15.29,21.03 -9.51,3.09 -24.73,-8.03 -5.88,-8.09" fill="#fff"/>
  <polygon transform="translate(165,378)" points="0,-26 5.88,-8.09 24.73,-8.03 9.51,3.09 15.29,21.03 0,10 -15.29,21.03 -9.51,3.09 -24.73,-8.03 -5.88,-8.09" fill="#fff"/>
  <polygon transform="translate(275,378)" points="0,-26 5.88,-8.09 24.73,-8.03 9.51,3.09 15.29,21.03 0,10 -15.29,21.03 -9.51,3.09 -24.73,-8.03 -5.88,-8.09" fill="#fff"/>
  <polygon transform="translate(385,378)" points="0,-26 5.88,-8.09 24.73,-8.03 9.51,3.09 15.29,21.03 0,10 -15.29,21.03 -9.51,3.09 -24.73,-8.03 -5.88,-8.09" fill="#fff"/>
  <polygon transform="translate(495,378)" points="0,-26 5.88,-8.09 24.73,-8.03 9.51,3.09 15.29,21.03 0,10 -15.29,21.03 -9.51,3.09 -24.73,-8.03 -5.88,-8.09" fill="#fff"/>
  <polygon transform="translate(605,378)" points="0,-26 5.88,-8.09 24.73,-8.03 9.51,3.09 15.29,21.03 0,10 -15.29,21.03 -9.51,3.09 -24.73,-8.03 -5.88,-8.09" fill="#fff"/>
  <!-- Row 8 y=432 -->
  <polygon transform="translate(110,432)" points="0,-26 5.88,-8.09 24.73,-8.03 9.51,3.09 15.29,21.03 0,10 -15.29,21.03 -9.51,3.09 -24.73,-8.03 -5.88,-8.09" fill="#fff"/>
  <polygon transform="translate(220,432)" points="0,-26 5.88,-8.09 24.73,-8.03 9.51,3.09 15.29,21.03 0,10 -15.29,21.03 -9.51,3.09 -24.73,-8.03 -5.88,-8.09" fill="#fff"/>
  <polygon transform="translate(330,432)" points="0,-26 5.88,-8.09 24.73,-8.03 9.51,3.09 15.29,21.03 0,10 -15.29,21.03 -9.51,3.09 -24.73,-8.03 -5.88,-8.09" fill="#fff"/>
  <polygon transform="translate(440,432)" points="0,-26 5.88,-8.09 24.73,-8.03 9.51,3.09 15.29,21.03 0,10 -15.29,21.03 -9.51,3.09 -24.73,-8.03 -5.88,-8.09" fill="#fff"/>
  <polygon transform="translate(550,432)" points="0,-26 5.88,-8.09 24.73,-8.03 9.51,3.09 15.29,21.03 0,10 -15.29,21.03 -9.51,3.09 -24.73,-8.03 -5.88,-8.09" fill="#fff"/>
  <!-- Row 9 y=486 -->
  <polygon transform="translate(55,486)"  points="0,-26 5.88,-8.09 24.73,-8.03 9.51,3.09 15.29,21.03 0,10 -15.29,21.03 -9.51,3.09 -24.73,-8.03 -5.88,-8.09" fill="#fff"/>
  <polygon transform="translate(165,486)" points="0,-26 5.88,-8.09 24.73,-8.03 9.51,3.09 15.29,21.03 0,10 -15.29,21.03 -9.51,3.09 -24.73,-8.03 -5.88,-8.09" fill="#fff"/>
  <polygon transform="translate(275,486)" points="0,-26 5.88,-8.09 24.73,-8.03 9.51,3.09 15.29,21.03 0,10 -15.29,21.03 -9.51,3.09 -24.73,-8.03 -5.88,-8.09" fill="#fff"/>
  <polygon transform="translate(385,486)" points="0,-26 5.88,-8.09 24.73,-8.03 9.51,3.09 15.29,21.03 0,10 -15.29,21.03 -9.51,3.09 -24.73,-8.03 -5.88,-8.09" fill="#fff"/>
  <polygon transform="translate(495,486)" points="0,-26 5.88,-8.09 24.73,-8.03 9.51,3.09 15.29,21.03 0,10 -15.29,21.03 -9.51,3.09 -24.73,-8.03 -5.88,-8.09" fill="#fff"/>
  <polygon transform="translate(605,486)" points="0,-26 5.88,-8.09 24.73,-8.03 9.51,3.09 15.29,21.03 0,10 -15.29,21.03 -9.51,3.09 -24.73,-8.03 -5.88,-8.09" fill="#fff"/>
</svg>
