<svg xmlns="http://www.w3.org/2000/svg" viewBox="0 0 1900 1000">
  <defs>
    <polygon id="s" points="0,-16 3.7,-5.1 15.2,-4.9 6.1,2.0 9.4,13.5 0,6.4 -9.4,13.5 -6.1,2.0 -15.2,-4.9 -3.7,-5.1" fill="#fff"/>
  </defs>
  <!-- 13 stripes: 7 red, 6 white -->
  <rect width="1900" height="1000" fill="#C8102E"/>
  <rect y="76.9"  width="1900" height="76.9" fill="#fff"/>
  <rect y="230.8" width="1900" height="76.9" fill="#fff"/>
  <rect y="384.6" width="1900" height="76.9" fill="#fff"/>
  <rect y="538.5" width="1900" height="76.9" fill="#fff"/>
  <rect y="692.3" width="1900" height="76.9" fill="#fff"/>
  <rect y="846.2" width="1900" height="76.9" fill="#fff"/>
  <!-- Blue canton: 40% width × 7/13 height -->
  <rect width="760" height="538.5" fill="#002868"/>
  <!-- 50 stars: rows 1,3,5,7,9 = 6 stars; rows 2,4,6,8 = 5 stars -->
  <!-- Row 1 y=54 -->
  <use href="#s" x="57"  y="54"/><use href="#s" x="171" y="54"/><use href="#s" x="285" y="54"/><use href="#s" x="399" y="54"/><use href="#s" x="513" y="54"/><use href="#s" x="627" y="54"/>
  <!-- Row 2 y=108 -->
  <use href="#s" x="114" y="108"/><use href="#s" x="228" y="108"/><use href="#s" x="342" y="108"/><use href="#s" x="456" y="108"/><use href="#s" x="570" y="108"/>
  <!-- Row 3 y=162 -->
  <use href="#s" x="57"  y="162"/><use href="#s" x="171" y="162"/><use href="#s" x="285" y="162"/><use href="#s" x="399" y="162"/><use href="#s" x="513" y="162"/><use href="#s" x="627" y="162"/>
  <!-- Row 4 y=216 -->
  <use href="#s" x="114" y="216"/><use href="#s" x="228" y="216"/><use href="#s" x="342" y="216"/><use href="#s" x="456" y="216"/><use href="#s" x="570" y="216"/>
  <!-- Row 5 y=270 -->
  <use href="#s" x="57"  y="270"/><use href="#s" x="171" y="270"/><use href="#s" x="285" y="270"/><use href="#s" x="399" y="270"/><use href="#s" x="513" y="270"/><use href="#s" x="627" y="270"/>
  <!-- Row 6 y=324 -->
  <use href="#s" x="114" y="324"/><use href="#s" x="228" y="324"/><use href="#s" x="342" y="324"/><use href="#s" x="456" y="324"/><use href="#s" x="570" y="324"/>
  <!-- Row 7 y=378 -->
  <use href="#s" x="57"  y="378"/><use href="#s" x="171" y="378"/><use href="#s" x="285" y="378"/><use href="#s" x="399" y="378"/><use href="#s" x="513" y="378"/><use href="#s" x="627" y="378"/>
  <!-- Row 8 y=432 -->
  <use href="#s" x="114" y="432"/><use href="#s" x="228" y="432"/><use href="#s" x="342" y="432"/><use href="#s" x="456" y="432"/><use href="#s" x="570" y="432"/>
  <!-- Row 9 y=486 -->
  <use href="#s" x="57"  y="486"/><use href="#s" x="171" y="486"/><use href="#s" x="285" y="486"/><use href="#s" x="399" y="486"/><use href="#s" x="513" y="486"/><use href="#s" x="627" y="486"/>
</svg>
