<svg xmlns="http://www.w3.org/2000/svg" width="3800" height="2000" viewBox="0 0 3800 2000">
  <!-- 13 stripes: 7 red, 6 white — stripe h = 153.85 -->
  <rect width="3800" height="2000" fill="#B22234"/>
  <rect y="153.85"  width="3800" height="153.85" fill="#fff"/>
  <rect y="461.54"  width="3800" height="153.85" fill="#fff"/>
  <rect y="769.23"  width="3800" height="153.85" fill="#fff"/>
  <rect y="1076.92" width="3800" height="153.85" fill="#fff"/>
  <rect y="1384.62" width="3800" height="153.85" fill="#fff"/>
  <rect y="1692.31" width="3800" height="153.85" fill="#fff"/>
  <!-- Blue canton: 1520 × 1077 -->
  <rect width="1520" height="1077" fill="#3C3B6E"/>
  <!-- 50 stars R=40 r=15
       6-star rows x: 127,380,633,887,1140,1393
       5-star rows x: 253,507,760,1013,1267
       Row y: 108,215,323,431,538,646,754,862,969        -->
  <!-- Row 1 (6 stars) -->
  <polygon transform="translate(127,108)"  points="0,-40 8.82,-12.14 38.04,-12.36 14.27,4.64 23.51,32.36 0,15 -23.51,32.36 -14.27,4.64 -38.04,-12.36 -8.82,-12.14" fill="#fff"/>
  <polygon transform="translate(380,108)"  points="0,-40 8.82,-12.14 38.04,-12.36 14.27,4.64 23.51,32.36 0,15 -23.51,32.36 -14.27,4.64 -38.04,-12.36 -8.82,-12.14" fill="#fff"/>
  <polygon transform="translate(633,108)"  points="0,-40 8.82,-12.14 38.04,-12.36 14.27,4.64 23.51,32.36 0,15 -23.51,32.36 -14.27,4.64 -38.04,-12.36 -8.82,-12.14" fill="#fff"/>
  <polygon transform="translate(887,108)"  points="0,-40 8.82,-12.14 38.04,-12.36 14.27,4.64 23.51,32.36 0,15 -23.51,32.36 -14.27,4.64 -38.04,-12.36 -8.82,-12.14" fill="#fff"/>
  <polygon transform="translate(1140,108)" points="0,-40 8.82,-12.14 38.04,-12.36 14.27,4.64 23.51,32.36 0,15 -23.51,32.36 -14.27,4.64 -38.04,-12.36 -8.82,-12.14" fill="#fff"/>
  <polygon transform="translate(1393,108)" points="0,-40 8.82,-12.14 38.04,-12.36 14.27,4.64 23.51,32.36 0,15 -23.51,32.36 -14.27,4.64 -38.04,-12.36 -8.82,-12.14" fill="#fff"/>
  <!-- Row 2 (5 stars) -->
  <polygon transform="translate(253,215)"  points="0,-40 8.82,-12.14 38.04,-12.36 14.27,4.64 23.51,32.36 0,15 -23.51,32.36 -14.27,4.64 -38.04,-12.36 -8.82,-12.14" fill="#fff"/>
  <polygon transform="translate(507,215)"  points="0,-40 8.82,-12.14 38.04,-12.36 14.27,4.64 23.51,32.36 0,15 -23.51,32.36 -14.27,4.64 -38.04,-12.36 -8.82,-12.14" fill="#fff"/>
  <polygon transform="translate(760,215)"  points="0,-40 8.82,-12.14 38.04,-12.36 14.27,4.64 23.51,32.36 0,15 -23.51,32.36 -14.27,4.64 -38.04,-12.36 -8.82,-12.14" fill="#fff"/>
  <polygon transform="translate(1013,215)" points="0,-40 8.82,-12.14 38.04,-12.36 14.27,4.64 23.51,32.36 0,15 -23.51,32.36 -14.27,4.64 -38.04,-12.36 -8.82,-12.14" fill="#fff"/>
  <polygon transform="translate(1267,215)" points="0,-40 8.82,-12.14 38.04,-12.36 14.27,4.64 23.51,32.36 0,15 -23.51,32.36 -14.27,4.64 -38.04,-12.36 -8.82,-12.14" fill="#fff"/>
  <!-- Row 3 (6 stars) -->
  <polygon transform="translate(127,323)"  points="0,-40 8.82,-12.14 38.04,-12.36 14.27,4.64 23.51,32.36 0,15 -23.51,32.36 -14.27,4.64 -38.04,-12.36 -8.82,-12.14" fill="#fff"/>
  <polygon transform="translate(380,323)"  points="0,-40 8.82,-12.14 38.04,-12.36 14.27,4.64 23.51,32.36 0,15 -23.51,32.36 -14.27,4.64 -38.04,-12.36 -8.82,-12.14" fill="#fff"/>
  <polygon transform="translate(633,323)"  points="0,-40 8.82,-12.14 38.04,-12.36 14.27,4.64 23.51,32.36 0,15 -23.51,32.36 -14.27,4.64 -38.04,-12.36 -8.82,-12.14" fill="#fff"/>
  <polygon transform="translate(887,323)"  points="0,-40 8.82,-12.14 38.04,-12.36 14.27,4.64 23.51,32.36 0,15 -23.51,32.36 -14.27,4.64 -38.04,-12.36 -8.82,-12.14" fill="#fff"/>
  <polygon transform="translate(1140,323)" points="0,-40 8.82,-12.14 38.04,-12.36 14.27,4.64 23.51,32.36 0,15 -23.51,32.36 -14.27,4.64 -38.04,-12.36 -8.82,-12.14" fill="#fff"/>
  <polygon transform="translate(1393,323)" points="0,-40 8.82,-12.14 38.04,-12.36 14.27,4.64 23.51,32.36 0,15 -23.51,32.36 -14.27,4.64 -38.04,-12.36 -8.82,-12.14" fill="#fff"/>
  <!-- Row 4 (5 stars) -->
  <polygon transform="translate(253,431)"  points="0,-40 8.82,-12.14 38.04,-12.36 14.27,4.64 23.51,32.36 0,15 -23.51,32.36 -14.27,4.64 -38.04,-12.36 -8.82,-12.14" fill="#fff"/>
  <polygon transform="translate(507,431)"  points="0,-40 8.82,-12.14 38.04,-12.36 14.27,4.64 23.51,32.36 0,15 -23.51,32.36 -14.27,4.64 -38.04,-12.36 -8.82,-12.14" fill="#fff"/>
  <polygon transform="translate(760,431)"  points="0,-40 8.82,-12.14 38.04,-12.36 14.27,4.64 23.51,32.36 0,15 -23.51,32.36 -14.27,4.64 -38.04,-12.36 -8.82,-12.14" fill="#fff"/>
  <polygon transform="translate(1013,431)" points="0,-40 8.82,-12.14 38.04,-12.36 14.27,4.64 23.51,32.36 0,15 -23.51,32.36 -14.27,4.64 -38.04,-12.36 -8.82,-12.14" fill="#fff"/>
  <polygon transform="translate(1267,431)" points="0,-40 8.82,-12.14 38.04,-12.36 14.27,4.64 23.51,32.36 0,15 -23.51,32.36 -14.27,4.64 -38.04,-12.36 -8.82,-12.14" fill="#fff"/>
  <!-- Row 5 (6 stars) -->
  <polygon transform="translate(127,538)"  points="0,-40 8.82,-12.14 38.04,-12.36 14.27,4.64 23.51,32.36 0,15 -23.51,32.36 -14.27,4.64 -38.04,-12.36 -8.82,-12.14" fill="#fff"/>
  <polygon transform="translate(380,538)"  points="0,-40 8.82,-12.14 38.04,-12.36 14.27,4.64 23.51,32.36 0,15 -23.51,32.36 -14.27,4.64 -38.04,-12.36 -8.82,-12.14" fill="#fff"/>
  <polygon transform="translate(633,538)"  points="0,-40 8.82,-12.14 38.04,-12.36 14.27,4.64 23.51,32.36 0,15 -23.51,32.36 -14.27,4.64 -38.04,-12.36 -8.82,-12.14" fill="#fff"/>
  <polygon transform="translate(887,538)"  points="0,-40 8.82,-12.14 38.04,-12.36 14.27,4.64 23.51,32.36 0,15 -23.51,32.36 -14.27,4.64 -38.04,-12.36 -8.82,-12.14" fill="#fff"/>
  <polygon transform="translate(1140,538)" points="0,-40 8.82,-12.14 38.04,-12.36 14.27,4.64 23.51,32.36 0,15 -23.51,32.36 -14.27,4.64 -38.04,-12.36 -8.82,-12.14" fill="#fff"/>
  <polygon transform="translate(1393,538)" points="0,-40 8.82,-12.14 38.04,-12.36 14.27,4.64 23.51,32.36 0,15 -23.51,32.36 -14.27,4.64 -38.04,-12.36 -8.82,-12.14" fill="#fff"/>
  <!-- Row 6 (5 stars) -->
  <polygon transform="translate(253,646)"  points="0,-40 8.82,-12.14 38.04,-12.36 14.27,4.64 23.51,32.36 0,15 -23.51,32.36 -14.27,4.64 -38.04,-12.36 -8.82,-12.14" fill="#fff"/>
  <polygon transform="translate(507,646)"  points="0,-40 8.82,-12.14 38.04,-12.36 14.27,4.64 23.51,32.36 0,15 -23.51,32.36 -14.27,4.64 -38.04,-12.36 -8.82,-12.14" fill="#fff"/>
  <polygon transform="translate(760,646)"  points="0,-40 8.82,-12.14 38.04,-12.36 14.27,4.64 23.51,32.36 0,15 -23.51,32.36 -14.27,4.64 -38.04,-12.36 -8.82,-12.14" fill="#fff"/>
  <polygon transform="translate(1013,646)" points="0,-40 8.82,-12.14 38.04,-12.36 14.27,4.64 23.51,32.36 0,15 -23.51,32.36 -14.27,4.64 -38.04,-12.36 -8.82,-12.14" fill="#fff"/>
  <polygon transform="translate(1267,646)" points="0,-40 8.82,-12.14 38.04,-12.36 14.27,4.64 23.51,32.36 0,15 -23.51,32.36 -14.27,4.64 -38.04,-12.36 -8.82,-12.14" fill="#fff"/>
  <!-- Row 7 (6 stars) -->
  <polygon transform="translate(127,754)"  points="0,-40 8.82,-12.14 38.04,-12.36 14.27,4.64 23.51,32.36 0,15 -23.51,32.36 -14.27,4.64 -38.04,-12.36 -8.82,-12.14" fill="#fff"/>
  <polygon transform="translate(380,754)"  points="0,-40 8.82,-12.14 38.04,-12.36 14.27,4.64 23.51,32.36 0,15 -23.51,32.36 -14.27,4.64 -38.04,-12.36 -8.82,-12.14" fill="#fff"/>
  <polygon transform="translate(633,754)"  points="0,-40 8.82,-12.14 38.04,-12.36 14.27,4.64 23.51,32.36 0,15 -23.51,32.36 -14.27,4.64 -38.04,-12.36 -8.82,-12.14" fill="#fff"/>
  <polygon transform="translate(887,754)"  points="0,-40 8.82,-12.14 38.04,-12.36 14.27,4.64 23.51,32.36 0,15 -23.51,32.36 -14.27,4.64 -38.04,-12.36 -8.82,-12.14" fill="#fff"/>
  <polygon transform="translate(1140,754)" points="0,-40 8.82,-12.14 38.04,-12.36 14.27,4.64 23.51,32.36 0,15 -23.51,32.36 -14.27,4.64 -38.04,-12.36 -8.82,-12.14" fill="#fff"/>
  <polygon transform="translate(1393,754)" points="0,-40 8.82,-12.14 38.04,-12.36 14.27,4.64 23.51,32.36 0,15 -23.51,32.36 -14.27,4.64 -38.04,-12.36 -8.82,-12.14" fill="#fff"/>
  <!-- Row 8 (5 stars) -->
  <polygon transform="translate(253,862)"  points="0,-40 8.82,-12.14 38.04,-12.36 14.27,4.64 23.51,32.36 0,15 -23.51,32.36 -14.27,4.64 -38.04,-12.36 -8.82,-12.14" fill="#fff"/>
  <polygon transform="translate(507,862)"  points="0,-40 8.82,-12.14 38.04,-12.36 14.27,4.64 23.51,32.36 0,15 -23.51,32.36 -14.27,4.64 -38.04,-12.36 -8.82,-12.14" fill="#fff"/>
  <polygon transform="translate(760,862)"  points="0,-40 8.82,-12.14 38.04,-12.36 14.27,4.64 23.51,32.36 0,15 -23.51,32.36 -14.27,4.64 -38.04,-12.36 -8.82,-12.14" fill="#fff"/>
  <polygon transform="translate(1013,862)" points="0,-40 8.82,-12.14 38.04,-12.36 14.27,4.64 23.51,32.36 0,15 -23.51,32.36 -14.27,4.64 -38.04,-12.36 -8.82,-12.14" fill="#fff"/>
  <polygon transform="translate(1267,862)" points="0,-40 8.82,-12.14 38.04,-12.36 14.27,4.64 23.51,32.36 0,15 -23.51,32.36 -14.27,4.64 -38.04,-12.36 -8.82,-12.14" fill="#fff"/>
  <!-- Row 9 (6 stars) -->
  <polygon transform="translate(127,969)"  points="0,-40 8.82,-12.14 38.04,-12.36 14.27,4.64 23.51,32.36 0,15 -23.51,32.36 -14.27,4.64 -38.04,-12.36 -8.82,-12.14" fill="#fff"/>
  <polygon transform="translate(380,969)"  points="0,-40 8.82,-12.14 38.04,-12.36 14.27,4.64 23.51,32.36 0,15 -23.51,32.36 -14.27,4.64 -38.04,-12.36 -8.82,-12.14" fill="#fff"/>
  <polygon transform="translate(633,969)"  points="0,-40 8.82,-12.14 38.04,-12.36 14.27,4.64 23.51,32.36 0,15 -23.51,32.36 -14.27,4.64 -38.04,-12.36 -8.82,-12.14" fill="#fff"/>
  <polygon transform="translate(887,969)"  points="0,-40 8.82,-12.14 38.04,-12.36 14.27,4.64 23.51,32.36 0,15 -23.51,32.36 -14.27,4.64 -38.04,-12.36 -8.82,-12.14" fill="#fff"/>
  <polygon transform="translate(1140,969)" points="0,-40 8.82,-12.14 38.04,-12.36 14.27,4.64 23.51,32.36 0,15 -23.51,32.36 -14.27,4.64 -38.04,-12.36 -8.82,-12.14" fill="#fff"/>
  <polygon transform="translate(1393,969)" points="0,-40 8.82,-12.14 38.04,-12.36 14.27,4.64 23.51,32.36 0,15 -23.51,32.36 -14.27,4.64 -38.04,-12.36 -8.82,-12.14" fill="#fff"/>
</svg>
